<svg xmlns="http://www.w3.org/2000/svg" viewBox="0 0 24 24" width="24" height="24">
  <path fill="#57abab" d="M12 1a2 2 0 0 0-2 2v1.058a7.001 7.001 0 0 0-2.27.789l-.88-.88a2 2 0 0 0-2.828 0l-1.414 1.414a2 2 0 0 0 0 2.828l.88.88A7.001 7.001 0 0 0 4.058 10H3a2 2 0 0 0-2 2v2a2 2 0 0 0 2 2h1.058a7.001 7.001 0 0 0 .789 2.27l-.88.88a2 2 0 0 0 0 2.828l1.414 1.414a2 2 0 0 0 2.828 0l.88-.88A7.001 7.001 0 0 0 10 19.942V21a2 2 0 0 0 2 2h2a2 2 0 0 0 2-2v-1.058a7.001 7.001 0 0 0 2.27-.789l.88.88a2 2 0 0 0 2.828 0l1.414-1.414a2 2 0 0 0 0-2.828l-.88-.88A7.001 7.001 0 0 0 19.942 14H21a2 2 0 0 0 2-2v-2a2 2 0 0 0-2-2h-1.058a7.001 7.001 0 0 0-.789-2.27l.88-.88a2 2 0 0 0 0-2.828L19.599 1.293a2 2 0 0 0-2.828 0l-.88.88A7.001 7.001 0 0 0 14 4.058V3a2 2 0 0 0-2-2h-2zm0 8a3 3 0 1 1 0 6 3 3 0 0 1 0-6z"/>
</svg>
