<svg xmlns="http://www.w3.org/2000/svg" viewBox="0 0 512 512">
  <path fill="#ee4c1d" d="M256 0C114.6 0 0 114.6 0 256s114.6 256 256 256 256-114.6 256-256S397.4 0 256 0zm0 472c-119.4 0-216-96.6-216-216S136.6 40 256 40s216 96.6 216 216-96.6 216-216 216zm0-400c-101.7 0-184 82.3-184 184s82.3 184 184 184 184-82.3 184-184S357.7 72 256 72zm0 336c-83.8 0-152-68.2-152-152S172.2 104 256 104s152 68.2 152 152-68.2 152-152 152zm0-272c-66.2 0-120 53.8-120 120s53.8 120 120 120 120-53.8 120-120-53.8-120-120-120zm0 208c-48.5 0-88-39.5-88-88s39.5-88 88-88 88 39.5 88 88-39.5 88-88 88zm0-160c-39.8 0-72 32.2-72 72s32.2 72 72 72 72-32.2 72-72-32.2-72-72-72z"/>
</svg>
