<svg viewBox="0 0 300 300" xmlns="http://www.w3.org/2000/svg">
  <path fill="#57ABAB" d="M69.45,-89.1C83.55,-85.5,83.7,-56.4,82.5,-33.15C81.3,-10.05,78.6,7.35,66.9,15.15C55.2,22.8,34.65,21,22.05,37.35C9.3,53.55,4.65,87.9,-5.4,95.25C-15.45,102.75,-30.9,83.25,-48.6,68.7C-66.3,54,-86.25,44.25,-92.4,29.1C-98.7,13.95,-91.2,-6.6,-77.1,-17.4C-63,-28.05,-42.3,-28.8,-28.35,-32.55C-14.4,-36.15,-7.2,-42.75,10.35,-56.85C27.75,-71.1,55.5,-92.85,69.45,-89.1Z" transform="translate(100 100)" />
  <path fill="#ee4c1d" d="M69.45,-89.1C83.55,-85.5,83.7,-56.4,82.5,-33.15C81.3,-10.05,78.6,7.35,66.9,15.15C55.2,22.8,34.65,21,22.05,37.35C9.3,53.55,4.65,87.9,-5.4,95.25C-15.45,102.75,-30.9,83.25,-48.6,68.7C-66.3,54,-86.25,44.25,-92.4,29.1C-98.7,13.95,-91.2,-6.6,-77.1,-17.4C-63,-28.05,-42.3,-28.8,-28.35,-32.55C-14.4,-36.15,-7.2,-42.75,10.35,-56.85C27.75,-71.1,55.5,-92.85,69.45,-89.1Z" transform="translate(100 200)" />
  <path fill="#fab523" d="M69.45,-89.1C83.55,-85.5,83.7,-56.4,82.5,-33.15C81.3,-10.05,78.6,7.35,66.9,15.15C55.2,22.8,34.65,21,22.05,37.35C9.3,53.55,4.65,87.9,-5.4,95.25C-15.45,102.75,-30.9,83.25,-48.6,68.7C-66.3,54,-86.25,44.25,-92.4,29.1C-98.7,13.95,-91.2,-6.6,-77.1,-17.4C-63,-28.05,-42.3,-28.8,-28.35,-32.55C-14.4,-36.15,-7.2,-42.75,10.35,-56.85C27.75,-71.1,55.5,-92.85,69.45,-89.1Z" transform="translate(100 150)" />
</svg>
